<svg xmlns="http://www.w3.org/2000/svg" width="19" height="18" fill="none" viewBox="0 0 19 18"><path fill="#7c7c67" d="M6.39 3.42q.42-.225.945-.322Q7.86 3 8.73 3h1.29q.87 0 1.395.098.525.097.945.322.72.375 1.095 1.095.226.42.322.945.099.525.098 1.395v4.29q0 .87-.098 1.395-.096.525-.322.945-.375.72-1.095 1.095-.42.226-.945.322-.525.099-1.395.098H8.73q-.87 0-1.395-.098a3.2 3.2 0 0 1-.945-.322 2.5 2.5 0 0 1-1.095-1.095 3.2 3.2 0 0 1-.322-.945q-.099-.525-.098-1.395v-4.29q0-.87.098-1.395.096-.525.322-.945.375-.72 1.095-1.095m3.63-1.92H8.73q-1.08 0-1.815.15-.66.135-1.245.45-1.095.6-1.695 1.695-.315.585-.45 1.245-.15.735-.15 1.815v4.29q0 1.08.15 1.815.135.66.45 1.245.6 1.095 1.695 1.695.585.315 1.245.45.735.15 1.815.15h1.29q1.08 0 1.815-.15.66-.135 1.245-.45 1.095-.6 1.695-1.695.315-.585.45-1.245.15-.735.15-1.815v-4.29q0-1.08-.15-1.815-.135-.66-.45-1.245A4.2 4.2 0 0 0 13.08 2.1q-.585-.315-1.245-.45-.735-.15-1.815-.15m.105 3h-1.5v3.75h1.5zm-3.93 5.82 3.18 3.18 3.18-3.18-1.065-1.065-2.115 2.13-2.115-2.13z"/></svg>